#!OML:ASF F:\VICON\USERDATA\INSTALL\rory3\rory3.ASF
:FULLY-SPECIFIED
:DEGREES
795
root -0.174 17.8495 -0.934932 4.98076 12.5663 2.7483
lowerback 7.33589 2.79576 -0.747669
upperback 1.40067 3.77076 3.27801
thorax -2.92998 1.9004 3.43786
lowerneck -16.789 -14.7561 -14.2828
upperneck 23.2769 -21.5925 15.8591
head 14.2254 -9.0051 4.31922
rclavicle -1.90833e-014 9.54166e-015
rhumerus 32.7056 20.4345 -56.9084
rradius 53.0824
rwrist 50.6687
rhand -65.9897 -9.89653
rfingers 7.12502
rthumb -37.8332 -35.7409
lclavicle -1.90833e-014 9.54166e-015
lhumerus -34.9533 0.316095 80.7385
lradius 51.7646
lwrist -2.76008
lhand -17.2432 26.552
lfingers 7.12502
lthumb 9.0007 56.34
rfemur -14.9187 -3.47236 8.82598
rtibia 30.2202
rfoot -18.9158 -12.9713
rtoes -0.32131
lfemur -12.9129 1.39759 -21.3178
ltibia 23.7764
lfoot -12.1925 -1.76113
ltoes -18.0633
796
root -0.176113 17.8502 -0.938508 5.0399 12.7102 2.83854
lowerback 7.30004 2.77923 -0.807273
upperback 1.43606 3.7435 3.28973
thorax -2.8761 1.8868 3.48897
lowerneck -16.5658 -14.7202 -14.2295
upperneck 23.3627 -21.5674 15.7808
head 14.1909 -9.00877 4.30285
rclavicle 2.66371e-014 -6.36111e-015
rhumerus 33.2038 21.7873 -55.0869
rradius 53.305
rwrist 50.8931
rhand -65.7569 -9.85413
rfingers 7.12502
rthumb -37.6133 -35.7575
lclavicle 2.66371e-014 -6.36111e-015
lhumerus -34.9401 0.315183 80.7724
lradius 51.6941
lwrist -2.76801
lhand -17.5347 26.3741
lfingers 7.12502
lthumb 8.71941 56.174
rfemur -14.9224 -3.46013 8.72956
rtibia 30.2232
rfoot -19.0384 -13.0599
rtoes -0.110367
lfemur -12.9501 1.4051 -21.411
ltibia 23.7117
lfoot -12.172 -1.85753
ltoes -18.305
797
root -0.178625 17.8496 -0.942068 5.14396 12.7925 2.97315
lowerback 7.25846 2.78134 -0.878103
upperback 1.45733 3.73879 3.25247
thorax -2.83256 1.88433 3.49301
lowerneck -16.3422 -14.6904 -14.2265
upperneck 23.4836 -21.5798 15.8085
head 14.2033 -9.01907 4.32736
rclavicle 1.37161e-014 1.74931e-014
rhumerus 33.5055 22.9027 -53.5395
rradius 53.7013
rwrist 51.6239
rhand -65.3336 -9.16022
rfingers 7.12502
rthumb -37.2131 -35.1693
lclavicle 1.37161e-014 1.74931e-014
lhumerus -34.9261 0.345709 80.6809
lradius 51.664
lwrist -3.29065
lhand -17.3855 25.1851
lfingers 7.12502
lthumb 8.86333 54.979
rfemur -14.9971 -3.42032 8.59208
rtibia 30.2376
rfoot -19.0896 -13.1388
rtoes -0.0715758
lfemur -13.0339 1.43568 -21.5552
ltibia 23.6422
lfoot -12.1057 -1.94811
ltoes -18.3594
798
root -0.182615 17.8501 -0.94573 5.18932 12.8592 3.00996
lowerback 7.33395 2.79206 -0.934366
upperback 1.41875 3.75181 3.29462
thorax -2.92195 1.89276 3.56265
lowerneck -15.9338 -14.6649 -14.3261
upperneck 23.5019 -21.5789 15.8587
head 14.1477 -9.04585 4.38746
rclavicle -8.5875e-014 -6.36111e-015
rhumerus 33.6356 24.0301 -52.067
rradius 54.154
rwrist 52.0773
rhand -65.2923 -7.81459
rfingers 7.12502
rthumb -37.1741 -33.8338
lclavicle -8.5875e-014 -6.36111e-015
lhumerus -35.0439 0.502014 80.6432
lradius 51.5441
lwrist -3.90804
lhand -17.1091 24.5148
lfingers 7.12502
lthumb 9.13011 54.2972
rfemur -15.0462 -3.39846 8.5708
rtibia 30.2522
rfoot -19.0022 -13.2003
rtoes -0.113301
lfemur -13.0774 1.45837 -21.5811
ltibia 23.5824
lfoot -12.0777 -2.06676
ltoes -18.1983
799
root -0.188276 17.8515 -0.951103 5.18314 12.922 2.97522
lowerback 7.45016 2.81146 -1.00398
upperback 1.41678 3.77816 3.42935
thorax -3.00439 1.90829 3.73391
lowerneck -15.7495 -14.6476 -14.3869
upperneck 23.6799 -21.5367 15.7008
head 14.1592 -9.05421 4.36042
rclavicle 3.8763e-014 2.54444e-014
rhumerus 33.8237 25.0898 -50.4749
rradius 54.634
rwrist 52.4886
rhand -65.3776 -7.62895
rfingers 7.12502
rthumb -37.2548 -33.6271
lclavicle 3.8763e-014 2.54444e-014
lhumerus -35.2019 0.443269 80.8725
lradius 51.4449
lwrist -3.32993
lhand -17.725 25.08
lfingers 7.12502
lthumb 8.53577 54.8875
rfemur -15.0485 -3.29691 8.61828
rtibia 30.2579
rfoot -19.0698 -13.1935
rtoes 0.722325
lfemur -13.0841 1.49943 -21.5259
ltibia 23.538
lfoot -12.0027 -2.1666
ltoes -17.6338
800
root -0.192129 17.853 -0.956376 5.30977 12.9819 3.08471
lowerback 7.44601 2.85407 -1.23766
upperback 1.46548 3.82078 3.56817
thorax -2.97968 1.93225 4.00719
lowerneck -15.8178 -14.6806 -14.4812
upperneck 23.9105 -21.5254 15.4981
head 14.2492 -9.06538 4.2982
rclavicle -3.26007e-014 -9.54166e-015
rhumerus 34.1225 25.9234 -48.7452
rradius 55.0536
rwrist 53.0216
rhand -65.5489 -7.70022
rfingers 7.12502
rthumb -37.4167 -33.6558
lclavicle -3.26007e-014 -9.54166e-015
lhumerus -35.2406 0.297125 81.2198
lradius 51.4218
lwrist -2.63624
lhand -17.9906 25.605
lfingers 7.12502
lthumb 8.27937 55.4228
rfemur -15.1453 -3.34282 8.49756
rtibia 30.2619
rfoot -19.166 -13.0927
rtoes 1.31295
lfemur -13.1847 1.49586 -21.6483
ltibia 23.4962
lfoot -11.9052 -2.17704
ltoes -16.6581
801
root -0.197018 17.8538 -0.960617 5.36264 12.9873 3.09859
lowerback 7.48599 2.88527 -1.35053
upperback 1.50822 3.85686 3.67896
thorax -2.97578 1.95165 4.1819
lowerneck -15.8177 -14.6759 -14.4964
upperneck 24.117 -21.4797 15.287
head 14.2965 -9.06215 4.23335
rclavicle -3.18055e-014 -2.22639e-014
rhumerus 34.3723 26.7479 -47.1394
rradius 55.4929
rwrist 53.1545
rhand -65.5619 -6.9305
rfingers 7.12502
rthumb -37.429 -32.8828
lclavicle -3.18055e-014 -2.22639e-014
lhumerus -35.2906 0.32366 81.3872
lradius 51.4015
lwrist -2.54658
lhand -17.7958 24.8599
lfingers 7.12502
lthumb 8.46742 54.6701
rfemur -15.2257 -3.386 8.49001
rtibia 30.288
rfoot -19.1886 -13.0438
rtoes 1.15473
lfemur -13.2301 1.49645 -21.6517
ltibia 23.4486
lfoot -11.8292 -2.13943
ltoes -16.6846
802
root -0.206699 17.8523 -0.962608 5.32005 13.0184 3.0857
lowerback 7.62371 2.88654 -1.37641
upperback 1.52497 3.85785 3.71028
thorax -3.03911 1.95306 4.22322
lowerneck -15.6935 -14.6259 -14.4573
upperneck 24.3319 -21.429 15.1683
head 14.3292 -9.04948 4.20671
rclavicle 3.57812e-015 -1.27222e-014
rhumerus 34.5139 27.6006 -45.6921
rradius 56.0343
rwrist 53.325
rhand -65.3688 -7.73754
rfingers 7.12502
rthumb -37.2464 -33.7379
lclavicle 3.57812e-015 -1.27222e-014
lhumerus -35.4476 0.189233 81.4135
lradius 51.4912
lwrist -2.3261
lhand -17.709 24.2329
lfingers 7.12502
lthumb 8.55114 54.0398
rfemur -15.2289 -3.35115 8.52895
rtibia 30.3434
rfoot -19.1892 -13.0237
rtoes 1.56336
lfemur -13.1735 1.44093 -21.5945
ltibia 23.3677
lfoot -11.8059 -2.13112
ltoes -17.7968
803
root -0.215692 17.8507 -0.964984 5.35805 13.0637 3.14872
lowerback 7.64002 2.83265 -1.29896
upperback 1.5965 3.78637 3.60414
thorax -2.9555 1.91394 4.07752
lowerneck -15.7943 -14.5655 -14.3206
upperneck 24.5982 -21.3999 15.1273
head 14.4363 -9.01315 4.17899
rclavicle -6.20208e-014 -2.22639e-014
rhumerus 34.5827 28.2222 -44.6026
rradius 56.6112
rwrist 53.6282
rhand -65.5983 -7.73523
rfingers 7.12502
rthumb -37.4634 -33.6785
lclavicle -6.20208e-014 -2.22639e-014
lhumerus -35.4794 0.06863 81.2737
lradius 51.5662
lwrist -1.89475
lhand -17.9743 23.3504
lfingers 7.12502
lthumb 8.29516 53.1676
rfemur -15.2927 -3.43359 8.49109
rtibia 30.4104
rfoot -19.1832 -12.9674
rtoes 1.76225
lfemur -13.1741 1.37752 -21.6296
ltibia 23.2575
lfoot -11.7545 -2.1304
ltoes -18.4683
